%TF.GenerationSoftware,KiCad,Pcbnew,9.0.2+dfsg-1*%
%TF.CreationDate,2026-05-08T05:33:03-04:00*%
%TF.ProjectId,QiCoilTesting,5169436f-696c-4546-9573-74696e672e6b,rev?*%
%TF.SameCoordinates,Original*%
%TF.FileFunction,Legend,Top*%
%TF.FilePolarity,Positive*%
%FSLAX46Y46*%
G04 Gerber Fmt 4.6, Leading zero omitted, Abs format (unit mm)*
G04 Created by KiCad (PCBNEW 9.0.2+dfsg-1) date 2026-05-08 05:33:03*
%MOMM*%
%LPD*%
G01*
G04 APERTURE LIST*
%ADD10C,0.100000*%
G04 APERTURE END LIST*
D10*
X129944360Y-134372419D02*
X130039598Y-134372419D01*
X130039598Y-134372419D02*
X130134836Y-134420038D01*
X130134836Y-134420038D02*
X130182455Y-134467657D01*
X130182455Y-134467657D02*
X130230074Y-134562895D01*
X130230074Y-134562895D02*
X130277693Y-134753371D01*
X130277693Y-134753371D02*
X130277693Y-134991466D01*
X130277693Y-134991466D02*
X130230074Y-135181942D01*
X130230074Y-135181942D02*
X130182455Y-135277180D01*
X130182455Y-135277180D02*
X130134836Y-135324800D01*
X130134836Y-135324800D02*
X130039598Y-135372419D01*
X130039598Y-135372419D02*
X129944360Y-135372419D01*
X129944360Y-135372419D02*
X129849122Y-135324800D01*
X129849122Y-135324800D02*
X129801503Y-135277180D01*
X129801503Y-135277180D02*
X129753884Y-135181942D01*
X129753884Y-135181942D02*
X129706265Y-134991466D01*
X129706265Y-134991466D02*
X129706265Y-134753371D01*
X129706265Y-134753371D02*
X129753884Y-134562895D01*
X129753884Y-134562895D02*
X129801503Y-134467657D01*
X129801503Y-134467657D02*
X129849122Y-134420038D01*
X129849122Y-134420038D02*
X129944360Y-134372419D01*
X130706265Y-135277180D02*
X130753884Y-135324800D01*
X130753884Y-135324800D02*
X130706265Y-135372419D01*
X130706265Y-135372419D02*
X130658646Y-135324800D01*
X130658646Y-135324800D02*
X130706265Y-135277180D01*
X130706265Y-135277180D02*
X130706265Y-135372419D01*
X131087217Y-134372419D02*
X131753883Y-134372419D01*
X131753883Y-134372419D02*
X131325312Y-135372419D01*
X132801503Y-135372419D02*
X133325312Y-134705752D01*
X132801503Y-134705752D02*
X133325312Y-135372419D01*
X134944360Y-134372419D02*
X134468170Y-134372419D01*
X134468170Y-134372419D02*
X134420551Y-134848609D01*
X134420551Y-134848609D02*
X134468170Y-134800990D01*
X134468170Y-134800990D02*
X134563408Y-134753371D01*
X134563408Y-134753371D02*
X134801503Y-134753371D01*
X134801503Y-134753371D02*
X134896741Y-134800990D01*
X134896741Y-134800990D02*
X134944360Y-134848609D01*
X134944360Y-134848609D02*
X134991979Y-134943847D01*
X134991979Y-134943847D02*
X134991979Y-135181942D01*
X134991979Y-135181942D02*
X134944360Y-135277180D01*
X134944360Y-135277180D02*
X134896741Y-135324800D01*
X134896741Y-135324800D02*
X134801503Y-135372419D01*
X134801503Y-135372419D02*
X134563408Y-135372419D01*
X134563408Y-135372419D02*
X134468170Y-135324800D01*
X134468170Y-135324800D02*
X134420551Y-135277180D01*
X130694360Y-98122419D02*
X130789598Y-98122419D01*
X130789598Y-98122419D02*
X130884836Y-98170038D01*
X130884836Y-98170038D02*
X130932455Y-98217657D01*
X130932455Y-98217657D02*
X130980074Y-98312895D01*
X130980074Y-98312895D02*
X131027693Y-98503371D01*
X131027693Y-98503371D02*
X131027693Y-98741466D01*
X131027693Y-98741466D02*
X130980074Y-98931942D01*
X130980074Y-98931942D02*
X130932455Y-99027180D01*
X130932455Y-99027180D02*
X130884836Y-99074800D01*
X130884836Y-99074800D02*
X130789598Y-99122419D01*
X130789598Y-99122419D02*
X130694360Y-99122419D01*
X130694360Y-99122419D02*
X130599122Y-99074800D01*
X130599122Y-99074800D02*
X130551503Y-99027180D01*
X130551503Y-99027180D02*
X130503884Y-98931942D01*
X130503884Y-98931942D02*
X130456265Y-98741466D01*
X130456265Y-98741466D02*
X130456265Y-98503371D01*
X130456265Y-98503371D02*
X130503884Y-98312895D01*
X130503884Y-98312895D02*
X130551503Y-98217657D01*
X130551503Y-98217657D02*
X130599122Y-98170038D01*
X130599122Y-98170038D02*
X130694360Y-98122419D01*
X131456265Y-99027180D02*
X131503884Y-99074800D01*
X131503884Y-99074800D02*
X131456265Y-99122419D01*
X131456265Y-99122419D02*
X131408646Y-99074800D01*
X131408646Y-99074800D02*
X131456265Y-99027180D01*
X131456265Y-99027180D02*
X131456265Y-99122419D01*
X131837217Y-98122419D02*
X132456264Y-98122419D01*
X132456264Y-98122419D02*
X132122931Y-98503371D01*
X132122931Y-98503371D02*
X132265788Y-98503371D01*
X132265788Y-98503371D02*
X132361026Y-98550990D01*
X132361026Y-98550990D02*
X132408645Y-98598609D01*
X132408645Y-98598609D02*
X132456264Y-98693847D01*
X132456264Y-98693847D02*
X132456264Y-98931942D01*
X132456264Y-98931942D02*
X132408645Y-99027180D01*
X132408645Y-99027180D02*
X132361026Y-99074800D01*
X132361026Y-99074800D02*
X132265788Y-99122419D01*
X132265788Y-99122419D02*
X131980074Y-99122419D01*
X131980074Y-99122419D02*
X131884836Y-99074800D01*
X131884836Y-99074800D02*
X131837217Y-99027180D01*
X133551503Y-99122419D02*
X134075312Y-98455752D01*
X133551503Y-98455752D02*
X134075312Y-99122419D01*
X135122932Y-98122419D02*
X135789598Y-98122419D01*
X135789598Y-98122419D02*
X135361027Y-99122419D01*
X129944360Y-116372419D02*
X130039598Y-116372419D01*
X130039598Y-116372419D02*
X130134836Y-116420038D01*
X130134836Y-116420038D02*
X130182455Y-116467657D01*
X130182455Y-116467657D02*
X130230074Y-116562895D01*
X130230074Y-116562895D02*
X130277693Y-116753371D01*
X130277693Y-116753371D02*
X130277693Y-116991466D01*
X130277693Y-116991466D02*
X130230074Y-117181942D01*
X130230074Y-117181942D02*
X130182455Y-117277180D01*
X130182455Y-117277180D02*
X130134836Y-117324800D01*
X130134836Y-117324800D02*
X130039598Y-117372419D01*
X130039598Y-117372419D02*
X129944360Y-117372419D01*
X129944360Y-117372419D02*
X129849122Y-117324800D01*
X129849122Y-117324800D02*
X129801503Y-117277180D01*
X129801503Y-117277180D02*
X129753884Y-117181942D01*
X129753884Y-117181942D02*
X129706265Y-116991466D01*
X129706265Y-116991466D02*
X129706265Y-116753371D01*
X129706265Y-116753371D02*
X129753884Y-116562895D01*
X129753884Y-116562895D02*
X129801503Y-116467657D01*
X129801503Y-116467657D02*
X129849122Y-116420038D01*
X129849122Y-116420038D02*
X129944360Y-116372419D01*
X130706265Y-117277180D02*
X130753884Y-117324800D01*
X130753884Y-117324800D02*
X130706265Y-117372419D01*
X130706265Y-117372419D02*
X130658646Y-117324800D01*
X130658646Y-117324800D02*
X130706265Y-117277180D01*
X130706265Y-117277180D02*
X130706265Y-117372419D01*
X131658645Y-116372419D02*
X131182455Y-116372419D01*
X131182455Y-116372419D02*
X131134836Y-116848609D01*
X131134836Y-116848609D02*
X131182455Y-116800990D01*
X131182455Y-116800990D02*
X131277693Y-116753371D01*
X131277693Y-116753371D02*
X131515788Y-116753371D01*
X131515788Y-116753371D02*
X131611026Y-116800990D01*
X131611026Y-116800990D02*
X131658645Y-116848609D01*
X131658645Y-116848609D02*
X131706264Y-116943847D01*
X131706264Y-116943847D02*
X131706264Y-117181942D01*
X131706264Y-117181942D02*
X131658645Y-117277180D01*
X131658645Y-117277180D02*
X131611026Y-117324800D01*
X131611026Y-117324800D02*
X131515788Y-117372419D01*
X131515788Y-117372419D02*
X131277693Y-117372419D01*
X131277693Y-117372419D02*
X131182455Y-117324800D01*
X131182455Y-117324800D02*
X131134836Y-117277180D01*
X132801503Y-117372419D02*
X133325312Y-116705752D01*
X132801503Y-116705752D02*
X133325312Y-117372419D01*
X134944360Y-116372419D02*
X134468170Y-116372419D01*
X134468170Y-116372419D02*
X134420551Y-116848609D01*
X134420551Y-116848609D02*
X134468170Y-116800990D01*
X134468170Y-116800990D02*
X134563408Y-116753371D01*
X134563408Y-116753371D02*
X134801503Y-116753371D01*
X134801503Y-116753371D02*
X134896741Y-116800990D01*
X134896741Y-116800990D02*
X134944360Y-116848609D01*
X134944360Y-116848609D02*
X134991979Y-116943847D01*
X134991979Y-116943847D02*
X134991979Y-117181942D01*
X134991979Y-117181942D02*
X134944360Y-117277180D01*
X134944360Y-117277180D02*
X134896741Y-117324800D01*
X134896741Y-117324800D02*
X134801503Y-117372419D01*
X134801503Y-117372419D02*
X134563408Y-117372419D01*
X134563408Y-117372419D02*
X134468170Y-117324800D01*
X134468170Y-117324800D02*
X134420551Y-117277180D01*
%TO.C,TP3*%
X126550000Y-145100000D02*
X126550000Y-144850000D01*
X126550000Y-145100000D02*
X126300000Y-145100000D01*
X126550000Y-143200000D02*
X126550000Y-143450000D01*
X126550000Y-143200000D02*
X126300000Y-143200000D01*
X125450000Y-145100000D02*
X125700000Y-145100000D01*
X125450000Y-145100000D02*
X125450000Y-144850000D01*
X125450000Y-143200000D02*
X125700000Y-143200000D01*
X125450000Y-143200000D02*
X125450000Y-143450000D01*
%TO.C,TP2*%
X128800000Y-145100000D02*
X128800000Y-144850000D01*
X128800000Y-145100000D02*
X128550000Y-145100000D01*
X128800000Y-143200000D02*
X128800000Y-143450000D01*
X128800000Y-143200000D02*
X128550000Y-143200000D01*
X127700000Y-145100000D02*
X127950000Y-145100000D01*
X127700000Y-145100000D02*
X127700000Y-144850000D01*
X127700000Y-143200000D02*
X127950000Y-143200000D01*
X127700000Y-143200000D02*
X127700000Y-143450000D01*
X127700000Y-106900000D02*
X127700000Y-107150000D01*
X127700000Y-106900000D02*
X127950000Y-106900000D01*
X127700000Y-108800000D02*
X127700000Y-108550000D01*
X127700000Y-108800000D02*
X127950000Y-108800000D01*
X128800000Y-106900000D02*
X128550000Y-106900000D01*
X128800000Y-106900000D02*
X128800000Y-107150000D01*
X128800000Y-108800000D02*
X128550000Y-108800000D01*
X128800000Y-108800000D02*
X128800000Y-108550000D01*
%TO.C,TP3*%
X125450000Y-106900000D02*
X125450000Y-107150000D01*
X125450000Y-106900000D02*
X125700000Y-106900000D01*
X125450000Y-108800000D02*
X125450000Y-108550000D01*
X125450000Y-108800000D02*
X125700000Y-108800000D01*
X126550000Y-106900000D02*
X126300000Y-106900000D01*
X126550000Y-106900000D02*
X126550000Y-107150000D01*
X126550000Y-108800000D02*
X126300000Y-108800000D01*
X126550000Y-108800000D02*
X126550000Y-108550000D01*
%TO.C,TP2*%
X127700000Y-125050000D02*
X127700000Y-125300000D01*
X127700000Y-125050000D02*
X127950000Y-125050000D01*
X127700000Y-126950000D02*
X127700000Y-126700000D01*
X127700000Y-126950000D02*
X127950000Y-126950000D01*
X128800000Y-125050000D02*
X128550000Y-125050000D01*
X128800000Y-125050000D02*
X128800000Y-125300000D01*
X128800000Y-126950000D02*
X128550000Y-126950000D01*
X128800000Y-126950000D02*
X128800000Y-126700000D01*
%TO.C,TP3*%
X125450000Y-125050000D02*
X125450000Y-125300000D01*
X125450000Y-125050000D02*
X125700000Y-125050000D01*
X125450000Y-126950000D02*
X125450000Y-126700000D01*
X125450000Y-126950000D02*
X125700000Y-126950000D01*
X126550000Y-125050000D02*
X126300000Y-125050000D01*
X126550000Y-125050000D02*
X126550000Y-125300000D01*
X126550000Y-126950000D02*
X126300000Y-126950000D01*
X126550000Y-126950000D02*
X126550000Y-126700000D01*
%TD*%
M02*
